<svg xmlns="http://www.w3.org/2000/svg" version="1.1" xmlns:xlink="http://www.w3.org/1999/xlink" xmlns:svgjs="http://svgjs.dev/svgjs" width="2000" height="368" viewBox="0 0 2000 368"><g transform="matrix(1,0,0,1,-1.2121212121212466,-0.7352211882787287)"><svg viewBox="0 0 396 73" data-background-color="#111111" preserveAspectRatio="xMidYMid meet" height="368" width="2000" xmlns="http://www.w3.org/2000/svg" xmlns:xlink="http://www.w3.org/1999/xlink"><g id="tight-bounds" transform="matrix(1,0,0,1,0.2400000000000091,0.14584550745746583)"><svg viewBox="0 0 395.52 72.70830898508504" height="72.70830898508504" width="395.52"><g><svg viewBox="0 0 395.52 72.70830898508504" height="72.70830898508504" width="395.52"><g><svg viewBox="0 0 517.5566641687326 95.1422680412371" height="72.70830898508504" width="395.52"><g transform="matrix(1,0,0,1,122.03666416873259,0)"><svg viewBox="0 0 395.52 95.1422680412371" height="95.1422680412371" width="395.52"><g id="textblocktransform"><svg viewBox="0 0 395.52 95.1422680412371" height="95.1422680412371" width="395.52" id="textblock"><g><svg viewBox="0 0 395.52 95.1422680412371" height="95.1422680412371" width="395.52"><g transform="matrix(1,0,0,1,0,0)"><svg width="395.52" viewBox="1.7999999999999998 -28 116.39 28" height="95.1422680412371" data-palette-color="#e7e7e7"><path d="M14-8L18-8Q18.2-7.2 18.2-6L18.2-6Q18.2-4.85 18-4L18-4 16-4Q16.2-3.2 16.2-2L16.2-2Q16.2-0.85 16 0L16 0 6 0Q5.8-0.85 5.8-2L5.8-2Q5.8-3.2 6-4L6-4 4-4Q3.8-4.85 3.8-6L3.8-6Q3.8-7.2 4-8L4-8 2-8Q1.8-8.85 1.8-10L1.8-10Q1.8-11.2 2-12L2-12Q1.8-12.85 1.8-14L1.8-14Q1.8-15.2 2-16L2-16Q1.8-16.85 1.8-18L1.8-18Q1.8-19.2 2-20L2-20 4-20Q3.8-20.85 3.8-22L3.8-22Q3.8-23.2 4-24L4-24 6-24Q5.8-24.85 5.8-26L5.8-26Q5.8-27.2 6-28L6-28 16-28Q16.2-27.2 16.2-26L16.2-26Q16.2-24.85 16-24L16-24 18-24Q18.2-23.2 18.2-22L18.2-22Q18.2-20.85 18-20L18-20 14-20Q13.8-20.85 13.8-22L13.8-22Q13.8-23.2 14-24L14-24 8-24Q8.2-23.2 8.2-22L8.2-22Q8.2-20.85 8-20L8-20 6-20Q6.2-19.2 6.2-18L6.2-18Q6.2-16.85 6-16L6-16Q6.2-15.2 6.2-14L6.2-14Q6.2-12.85 6-12L6-12Q6.2-11.2 6.2-10L6.2-10Q6.2-8.85 6-8L6-8 8-8Q8.2-7.2 8.2-6L8.2-6Q8.2-4.85 8-4L8-4 14-4Q13.8-4.85 13.8-6L13.8-6Q13.8-7.2 14-8L14-8ZM38-16Q38.2-15.2 38.2-14L38.2-14Q38.2-12.85 38-12L38-12Q38.2-11.2 38.2-10L38.2-10Q38.2-8.85 38-8L38-8 36.5-8Q36.7-7.2 36.7-6L36.7-6Q36.7-4.85 36.5-4L36.5-4 34-4Q34.2-3.2 34.2-2L34.2-2Q34.2-0.85 34 0L34 0 26 0Q25.8-0.85 25.8-2L25.8-2Q25.8-3.2 26-4L26-4 23.5-4Q23.3-4.85 23.3-6L23.3-6Q23.3-7.2 23.5-8L23.5-8 22-8Q21.8-8.85 21.8-10L21.8-10Q21.8-11.2 22-12L22-12Q21.8-12.85 21.8-14L21.8-14Q21.8-15.2 22-16L22-16Q21.8-16.85 21.8-18L21.8-18Q21.8-19.2 22-20L22-20 23.5-20Q23.3-20.85 23.3-22L23.3-22Q23.3-23.2 23.5-24L23.5-24 26-24Q25.8-24.85 25.8-26L25.8-26Q25.8-27.2 26-28L26-28 34-28Q34.2-27.2 34.2-26L34.2-26Q34.2-24.85 34-24L34-24 36.5-24Q36.7-23.2 36.7-22L36.7-22Q36.7-20.85 36.5-20L36.5-20 38-20Q38.2-19.2 38.2-18L38.2-18Q38.2-16.85 38-16L38-16ZM34-8Q33.8-8.85 33.8-10L33.8-10Q33.8-11.2 34-12L34-12Q33.8-12.85 33.8-14L33.8-14Q33.8-15.2 34-16L34-16Q33.8-16.85 33.8-18L33.8-18Q33.8-19.2 34-20L34-20 32.5-20Q32.3-20.85 32.3-22L32.3-22Q32.3-23.2 32.5-24L32.5-24 27.5-24Q27.7-23.2 27.7-22L27.7-22Q27.7-20.85 27.5-20L27.5-20 26-20Q26.2-19.2 26.2-18L26.2-18Q26.2-16.85 26-16L26-16Q26.2-15.2 26.2-14L26.2-14Q26.2-12.85 26-12L26-12Q26.2-11.2 26.2-10L26.2-10Q26.2-8.85 26-8L26-8 27.5-8Q27.7-7.2 27.7-6L27.7-6Q27.7-4.85 27.5-4L27.5-4 32.5-4Q32.3-4.85 32.3-6L32.3-6Q32.3-7.2 32.5-8L32.5-8 34-8ZM58-16Q58.2-15.2 58.2-14L58.2-14Q58.2-12.85 58-12L58-12Q58.2-11.2 58.2-10L58.2-10Q58.2-8.85 58-8L58-8 56-8Q56.2-7.2 56.2-6L56.2-6Q56.2-4.85 56-4L56-4 54-4Q54.2-3.2 54.2-2L54.2-2Q54.2-0.85 54 0L54 0 42 0Q41.8-0.85 41.8-2L41.8-2Q41.8-3.2 42-4L42-4Q41.8-4.85 41.8-6L41.8-6Q41.8-7.2 42-8L42-8Q41.8-8.85 41.8-10L41.8-10Q41.8-11.2 42-12L42-12Q41.8-12.85 41.8-14L41.8-14Q41.8-15.2 42-16L42-16Q41.8-16.85 41.8-18L41.8-18Q41.8-19.2 42-20L42-20Q41.8-20.85 41.8-22L41.8-22Q41.8-23.2 42-24L42-24Q41.8-24.85 41.8-26L41.8-26Q41.8-27.2 42-28L42-28 54-28Q54.2-27.2 54.2-26L54.2-26Q54.2-24.85 54-24L54-24 56-24Q56.2-23.2 56.2-22L56.2-22Q56.2-20.85 56-20L56-20 58-20Q58.2-19.2 58.2-18L58.2-18Q58.2-16.85 58-16L58-16ZM54-8Q53.8-8.85 53.8-10L53.8-10Q53.8-11.2 54-12L54-12Q53.8-12.85 53.8-14L53.8-14Q53.8-15.2 54-16L54-16Q53.8-16.85 53.8-18L53.8-18Q53.8-19.2 54-20L54-20 52-20Q51.8-20.85 51.8-22L51.8-22Q51.8-23.2 52-24L52-24 46-24Q46.2-23.2 46.2-22L46.2-22Q46.2-20.85 46-20L46-20Q46.2-19.2 46.2-18L46.2-18Q46.2-16.85 46-16L46-16Q46.2-15.2 46.2-14L46.2-14Q46.2-12.85 46-12L46-12Q46.2-11.2 46.2-10L46.2-10Q46.2-8.85 46-8L46-8Q46.2-7.2 46.2-6L46.2-6Q46.2-4.85 46-4L46-4 52-4Q51.8-4.85 51.8-6L51.8-6Q51.8-7.2 52-8L52-8 54-8ZM71.99-4L74.99-4Q75.19-3.2 75.19-2L75.19-2Q75.19-0.85 74.99 0L74.99 0 64.99 0Q64.79-0.85 64.79-2L64.79-2Q64.79-3.2 64.99-4L64.99-4 67.99-4Q67.79-4.85 67.79-6L67.79-6Q67.79-7.2 67.99-8L67.99-8Q67.79-8.85 67.79-10L67.79-10Q67.79-11.2 67.99-12L67.99-12Q67.79-12.85 67.79-14L67.79-14Q67.79-15.2 67.99-16L67.99-16Q67.79-16.85 67.79-18L67.79-18Q67.79-19.2 67.99-20L67.99-20Q67.79-20.85 67.79-22L67.79-22Q67.79-23.2 67.99-24L67.99-24 64.99-24Q64.79-24.85 64.79-26L64.79-26Q64.79-27.2 64.99-28L64.99-28 74.99-28Q75.19-27.2 75.19-26L75.19-26Q75.19-24.85 74.99-24L74.99-24 71.99-24Q72.19-23.2 72.19-22L72.19-22Q72.19-20.85 71.99-20L71.99-20Q72.19-19.2 72.19-18L72.19-18Q72.19-16.85 71.99-16L71.99-16Q72.19-15.2 72.19-14L72.19-14Q72.19-12.85 71.99-12L71.99-12Q72.19-11.2 72.19-10L72.19-10Q72.19-8.85 71.99-8L71.99-8Q72.19-7.2 72.19-6L72.19-6Q72.19-4.85 71.99-4L71.99-4ZM97.99-16Q98.19-15.2 98.19-14L98.19-14Q98.19-12.85 97.99-12L97.99-12Q98.19-11.2 98.19-10L98.19-10Q98.19-8.85 97.99-8L97.99-8Q98.19-7.2 98.19-6L98.19-6Q98.19-4.85 97.99-4L97.99-4 95.99-4Q96.19-3.2 96.19-2L96.19-2Q96.19-0.85 95.99 0L95.99 0 85.99 0Q85.79-0.85 85.79-2L85.79-2Q85.79-3.2 85.99-4L85.99-4 83.99-4Q83.79-4.85 83.79-6L83.79-6Q83.79-7.2 83.99-8L83.99-8 81.99-8Q81.79-8.85 81.79-10L81.79-10Q81.79-11.2 81.99-12L81.99-12Q81.79-12.85 81.79-14L81.79-14Q81.79-15.2 81.99-16L81.99-16Q81.79-16.85 81.79-18L81.79-18Q81.79-19.2 81.99-20L81.99-20 83.99-20Q83.79-20.85 83.79-22L83.79-22Q83.79-23.2 83.99-24L83.99-24 85.99-24Q85.79-24.85 85.79-26L85.79-26Q85.79-27.2 85.99-28L85.99-28 95.99-28Q96.19-27.2 96.19-26L96.19-26Q96.19-24.85 95.99-24L95.99-24 97.99-24Q98.19-23.2 98.19-22L98.19-22Q98.19-20.85 97.99-20L97.99-20 93.99-20Q93.79-20.85 93.79-22L93.79-22Q93.79-23.2 93.99-24L93.99-24 87.99-24Q88.19-23.2 88.19-22L88.19-22Q88.19-20.85 87.99-20L87.99-20 85.99-20Q86.19-19.2 86.19-18L86.19-18Q86.19-16.85 85.99-16L85.99-16Q86.19-15.2 86.19-14L86.19-14Q86.19-12.85 85.99-12L85.99-12Q86.19-11.2 86.19-10L86.19-10Q86.19-8.85 85.99-8L85.99-8 87.99-8Q88.19-7.2 88.19-6L88.19-6Q88.19-4.85 87.99-4L87.99-4 93.99-4Q93.79-4.85 93.79-6L93.79-6Q93.79-7.2 93.99-8L93.99-8Q93.79-8.85 93.79-10L93.79-10Q93.79-11.2 93.99-12L93.99-12 90.99-12Q90.79-12.85 90.79-14L90.79-14Q90.79-15.2 90.99-16L90.99-16 97.99-16ZM117.99-16Q118.19-15.2 118.19-14L118.19-14Q118.19-12.85 117.99-12L117.99-12Q118.19-11.2 118.19-10L118.19-10Q118.19-8.85 117.99-8L117.99-8 116.49-8Q116.69-7.2 116.69-6L116.69-6Q116.69-4.85 116.49-4L116.49-4 113.99-4Q114.19-3.2 114.19-2L114.19-2Q114.19-0.85 113.99 0L113.99 0 105.99 0Q105.79-0.85 105.79-2L105.79-2Q105.79-3.2 105.99-4L105.99-4 103.49-4Q103.29-4.85 103.29-6L103.29-6Q103.29-7.2 103.49-8L103.49-8 101.99-8Q101.79-8.85 101.79-10L101.79-10Q101.79-11.2 101.99-12L101.99-12Q101.79-12.85 101.79-14L101.79-14Q101.79-15.2 101.99-16L101.99-16Q101.79-16.85 101.79-18L101.79-18Q101.79-19.2 101.99-20L101.99-20 103.49-20Q103.29-20.85 103.29-22L103.29-22Q103.29-23.2 103.49-24L103.49-24 105.99-24Q105.79-24.85 105.79-26L105.79-26Q105.79-27.2 105.99-28L105.99-28 113.99-28Q114.19-27.2 114.19-26L114.19-26Q114.19-24.85 113.99-24L113.99-24 116.49-24Q116.69-23.2 116.69-22L116.69-22Q116.69-20.85 116.49-20L116.49-20 117.99-20Q118.19-19.2 118.19-18L118.19-18Q118.19-16.85 117.99-16L117.99-16ZM113.99-8Q113.79-8.85 113.79-10L113.79-10Q113.79-11.2 113.99-12L113.99-12Q113.79-12.85 113.79-14L113.79-14Q113.79-15.2 113.99-16L113.99-16Q113.79-16.85 113.79-18L113.79-18Q113.79-19.2 113.99-20L113.99-20 112.49-20Q112.29-20.85 112.29-22L112.29-22Q112.29-23.2 112.49-24L112.49-24 107.49-24Q107.69-23.2 107.69-22L107.69-22Q107.69-20.85 107.49-20L107.49-20 105.99-20Q106.19-19.2 106.19-18L106.19-18Q106.19-16.85 105.99-16L105.99-16Q106.19-15.2 106.19-14L106.19-14Q106.19-12.85 105.99-12L105.99-12Q106.19-11.2 106.19-10L106.19-10Q106.19-8.85 105.99-8L105.99-8 107.49-8Q107.69-7.2 107.69-6L107.69-6Q107.69-4.85 107.49-4L107.49-4 112.49-4Q112.29-4.85 112.29-6L112.29-6Q112.29-7.2 112.49-8L112.49-8 113.99-8Z" opacity="1" transform="matrix(1,0,0,1,0,0)" fill="#e7e7e7" class="wordmark-text-0" data-fill-palette-color="primary" id="text-0"></path></svg></g></svg></g></svg></g></svg></g><g transform="matrix(1,0,0,1,0,4.180551257731949)"><svg viewBox="0 0 99.5758580986295 86.7811655257732" height="86.7811655257732" width="99.5758580986295"><g><svg xmlns="http://www.w3.org/2000/svg" xmlns:xlink="http://www.w3.org/1999/xlink" version="1.0" x="0" y="0" viewBox="1.118 4.1185758 47.921 41.76353899999999" enable-background="new 0 0 50 50" xml:space="preserve" height="86.7811655257732" width="99.5758580986295" class="icon-icon-0" data-fill-palette-color="accent" id="icon-0"><g fill="#f7f7f7" data-fill-palette-color="accent"><g fill="#f7f7f7" data-fill-palette-color="accent"><polygon fill="#f7f7f7" points="10.821,24.951 21,32.193 21,39.035 1.118,24.891 21,11.118 21,17.9   " data-fill-palette-color="accent"></polygon></g><g fill="#f7f7f7" data-fill-palette-color="accent"><polygon fill="#f7f7f7" points="49.039,25.277 35.815,16.063 34.219,21.712 39.475,25.338 31.411,30.97 29,38.79 29,39.424   " data-fill-palette-color="accent"></polygon></g><rect x="25.577" y="3.983" transform="matrix(0.9606 0.278 -0.278 0.9606 8.0575 -6.8179)" fill="#f7f7f7" width="4.981" height="42.035" data-fill-palette-color="accent"></rect></g></svg></g></svg></g></svg></g></svg></g><defs></defs></svg><rect width="395.52" height="72.70830898508504" fill="none" stroke="none" visibility="hidden"></rect></g></svg></g></svg>